<?xml version="1.0" standalone="no"?>
<!DOCTYPE svg PUBLIC "-//W3C//DTD SVG 20010904//EN"
 "http://www.w3.org/TR/2001/REC-SVG-20010904/DTD/svg10.dtd">
<svg version="1.0" xmlns="http://www.w3.org/2000/svg"
 width="612.000000pt" height="612.000000pt" viewBox="0 0 612.000000 612.000000"
 preserveAspectRatio="xMidYMid meet">

<g transform="translate(0.000000,612.000000) scale(0.100000,-0.100000)"
fill="#000000" stroke="none">
<path d="M2515 5344 c-51 -8 -157 -45 -227 -79 -206 -101 -353 -285 -417 -520
-35 -125 -21 -333 29 -462 72 -187 198 -330 370 -421 140 -74 194 -87 370 -87
174 0 222 11 370 86 261 131 420 397 420 702 0 303 -161 561 -438 701 -124 63
-184 78 -322 81 -69 2 -138 1 -155 -1z"/>
<path d="M3784 3750 c-61 -12 -163 -58 -216 -97 -282 -206 -317 -617 -74 -867
108 -111 222 -163 381 -173 170 -11 316 46 441 172 74 75 123 160 150 260 18
67 18 217 -1 288 -53 205 -227 371 -434 416 -59 12 -186 13 -247 1z"/>
</g>
</svg>
